<?xml version="1.0" encoding="utf-8"?>
<!-- Generator: Adobe Illustrator 24.0.3, SVG Export Plug-In . SVG Version: 6.00 Build 0)  -->
<svg version="1.1" id="Calque_1" xmlns="http://www.w3.org/2000/svg" xmlns:xlink="http://www.w3.org/1999/xlink" x="0px" y="0px"
	 viewBox="0 0 495.3 294.9" style="enable-background:new 0 0 495.3 294.9;" xml:space="preserve">
<style type="text/css">
	.st0{fill:url(#SVGID_1_);fill-opacity:0.25;}
	.st1{fill:url(#SVGID_2_);stroke:#898989;}
	.st2{fill:url(#SVGID_3_);stroke:#898989;}
	.st3{opacity:0.25;fill:url(#SVGID_4_);fill-opacity:0.25;enable-background:new    ;}
	.st4{display:none;fill:url(#SVGID_5_);}
	.st5{fill:url(#SVGID_6_);stroke:#745A32;}
	.st6{fill:url(#SVGID_7_);fill-opacity:0.25;}
	.st7{fill:none;stroke:#898989;}
	.st8{opacity:0.41;fill:#FFFFFF;enable-background:new    ;}
	.st9{fill:none;}
	.st10{fill:#9061C2;}
</style>
<g>
	
		<linearGradient id="SVGID_1_" gradientUnits="userSpaceOnUse" x1="813.8775" y1="-149.7189" x2="827.5494" y2="-130.1936" gradientTransform="matrix(-0.565 -0.8251 0.8251 -0.565 729.753 680.68)">
		<stop  offset="0" style="stop-color:#FFFFFF"/>
		<stop  offset="1" style="stop-color:#9D7742"/>
	</linearGradient>
	<path class="st0" d="M277.9,143.2l6.6-8.1c0,0-217.5-84.9-264.2-114.2C45.6,56.2,277.9,143.2,277.9,143.2z"/>
	
		<linearGradient id="SVGID_2_" gradientUnits="userSpaceOnUse" x1="758.1943" y1="-118.1458" x2="791.4821" y2="-70.6062" gradientTransform="matrix(-0.565 -0.8251 0.8251 -0.565 729.753 680.68)">
		<stop  offset="0" style="stop-color:#AF9540"/>
		<stop  offset="1" style="stop-color:#1B140C"/>
	</linearGradient>
	<path class="st1" d="M426.3,186.4c6.5-9.3-115.8-80.7-194.5-114.1C153.1,38.9,10.6-15,1.3,4.7c-9.3,19.7,65.7,64.1,210.6,120
		C356.8,180.6,419.7,195.7,426.3,186.4z"/>
	
		<linearGradient id="SVGID_3_" gradientUnits="userSpaceOnUse" x1="663.2764" y1="14.3714" x2="631.3154" y2="-31.2737" gradientTransform="matrix(-0.565 -0.8251 0.8251 -0.565 729.753 680.68)">
		<stop  offset="0" style="stop-color:#898989"/>
		<stop  offset="1" style="stop-color:#C6C7C8"/>
	</linearGradient>
	<path class="st2" d="M267.3,147.4c111.1,40.3,161.3,50.8,167.3,42.2c5.5-7.9-72.4-56-148.4-94.6C285.1,112,278.4,130.9,267.3,147.4
		z"/>
	
		<linearGradient id="SVGID_4_" gradientUnits="userSpaceOnUse" x1="837.141" y1="-86.4504" x2="818.1791" y2="-193.9892" gradientTransform="matrix(-0.565 -0.8251 0.8251 -0.565 729.753 680.68)">
		<stop  offset="0" style="stop-color:#FFFFFF"/>
		<stop  offset="1" style="stop-color:#7A5B33"/>
	</linearGradient>
	<path class="st3" d="M268.6,146.5l8.7-13.8c0,0-217.5-84.9-264.2-114.2C38.5,53.8,268.6,146.5,268.6,146.5z"/>
	
		<linearGradient id="SVGID_5_" gradientUnits="userSpaceOnUse" x1="558.824" y1="39.1425" x2="721.748" y2="39.1425" gradientTransform="matrix(-0.6722 -0.7404 0.7404 -0.6722 749.347 641.2167)">
		<stop  offset="0" style="stop-color:#898989"/>
		<stop  offset="1" style="stop-color:#C6C7C8"/>
	</linearGradient>
	<path class="st4" d="M272.8,144.1c115.6,24.8,166.7,28.4,171.5,19c4.4-8.6-80.2-45.9-160.8-73.8
		C284.7,108.9,281.5,126.2,272.8,144.1z"/>
	<g>
		
			<linearGradient id="SVGID_6_" gradientUnits="userSpaceOnUse" x1="536.8619" y1="74.2447" x2="586.291" y2="115.7206" gradientTransform="matrix(-0.6582 -0.7528 0.7528 -0.6582 737.658 669.461)">
			<stop  offset="0" style="stop-color:#886739"/>
			<stop  offset="1" style="stop-color:#332814"/>
		</linearGradient>
		<path class="st5" d="M494.3,204.9c-22.6-12.1-25.8-27.9-49.5-44.4c-23.7-16.5-52.9-4.9-58.7,8.8c-5.8,13.7,13,39.1,45.1,45.5
			C463.4,221.2,494.3,204.9,494.3,204.9z"/>
		
			<linearGradient id="SVGID_7_" gradientUnits="userSpaceOnUse" x1="512.3293" y1="90.4731" x2="576.7681" y2="90.4731" gradientTransform="matrix(-0.6582 -0.7528 0.7528 -0.6582 737.658 669.461)">
			<stop  offset="0" style="stop-color:#FFFFFF"/>
			<stop  offset="1" style="stop-color:#9D7742"/>
		</linearGradient>
		<path class="st6" d="M490.9,204.7c-20.3-3.2-30.9-9.1-54.3-14c-23.4-4.8-34.6,1.6-30.6,7.2c4,5.7,29.3,14.3,52.3,14.7
			C481.3,213,490.9,204.7,490.9,204.7z"/>
	</g>
	<path class="st7" d="M283.5,153.3c13.1-17.3,17.3-32.8,18.7-50.1"/>
	<path class="st8" d="M268.1,147.3c0,0,11.2-20.2,14.2-29.7s4.6-21.6,4.6-21.6l15,7c0,0-0.5,12.2-4.6,24.8s-13.8,24.8-13.8,24.8
		L268.1,147.3z"/>
</g>
<g>
	<g>
		<path class="st9" d="M485.3,242.1c-112.1-18.8-246.1-25-351.5,28.3"/>
		<g>
			<line class="st9" x1="345.5" y1="237.1" x2="345.5" y2="237.1"/>
			<line class="st9" x1="350.8" y1="239.6" x2="350.8" y2="239.6"/>
			<path class="st10" d="M464.4,226.6c-2.6-0.8-5.5-0.7-8.2-0.2c-5.7,1-9.6-5.6-15.3-4.2c-7.1,1.8-13.2-4-20.4-3
				c-13.3,1.9-27,5.2-40,2.1c-24.6-6-47.2-6.3-71.9-12.9c-14.4-3.8-31-5.3-46-2.7c-10.9,1.7-33.8,2.2-41.8,10.8
				c12-4.9,25.8-4.8,38.4-3.6c-26.6,4.9-54.9,10.7-78.4,24.6c45.1-23.7,99.3-22.4,143-0.5c-25.5-4.5-55.8-9.1-85.9-6.5
				c-29.9,2.4-59.6,12.4-78.6,32.5c-2.9,3-5.8,6.9-7.6,10.5c16.4-23.4,45-35.3,74.3-38.5c29.6-3.4,59.9,1.4,85.9,6.2
				c24,4.4,47.6,9.3,71.7,10.8c6.5,1.2,13.1,2.1,19.6,3.1c13.4,1.9,26.9,3.6,40.6,4.2c12.1,0.4,33.4,3.1,40.6-11
				c-3.8-1.1-8.4,0-12-1.6c1.6-1.1,3.5-2.5,5.3-3.2c-1.6-0.2-3.3-1-4.9-0.3c1.4-0.6,2.8-1.3,3.5-2.8c-1.9-0.7-4.9,1.1-6.6,1.8
				c-1,0.4-5.6,3.3-6.6,2.6c3.4-2.4,7.7-4.5,10.7-7.5c-1-0.3-2.1-0.2-3.1-0.7c1.5-1.1,4-1.3,5-3c-2.7-0.2-5.1,0.5-7.8,0
				c-2.2-0.4-4.1-0.9-6.4-0.4c2.7-1,6.2-1.5,8.4-3.7c-1.1-0.8-2.4-0.6-3.6-0.5c0.2-0.2,0.3-0.5,0.4-0.8c-0.5,0-1.2-0.5-1.8-0.5
				c0-0.4,0-0.8,0.2-1.2l-0.2,0.9"/>
			<line class="st9" x1="464.4" y1="226.6" x2="464.4" y2="226.6"/>
			<path class="st10" d="M463.8,255.6c-2.6-0.2-6.2-0.5-8.5-1.6"/>
			<path class="st9" d="M308.9,236.9c0.1,0.2-35-4.4-74.3,3c-39.4,6.5-81.1,28.1-88.4,55"/>
			<path class="st9" d="M244.9,226.5c0,0.1-13.6,0.3-31.7,6c-18,5.5-40.3,16.9-54.5,35.9"/>
		</g>
	</g>
</g>
</svg>
